<svg width="48" height="48" viewBox="0 0 48 48" fill="none" xmlns="http://www.w3.org/2000/svg">
<path d="M23.0268 4.88478C23.6297 4.8957 24.232 4.93734 24.8305 5.00978C25.0007 5.03002 25.289 5.07137 25.6323 5.12794C25.8041 5.15625 25.9897 5.188 26.1811 5.22365C26.5639 5.29494 26.9701 5.37998 27.3364 5.47365C27.8859 5.61415 28.346 5.77488 28.5024 5.93947C28.5512 5.99091 28.5874 6.05419 28.6128 6.12306C28.638 6.19169 28.653 6.2658 28.6596 6.33888C28.6641 6.38777 28.6647 6.43634 28.6626 6.48243C28.6556 6.6341 28.6068 6.76981 28.4936 6.87501C28.4732 6.89405 28.4516 6.9113 28.4292 6.92677C28.3845 6.95754 28.3362 6.98175 28.2856 7.00001C28.159 7.04573 28.0182 7.05487 27.8843 7.04591C27.4978 7.01995 27.1186 6.9067 26.7407 6.82911C26.2236 6.72385 25.6999 6.65479 25.1733 6.62208C22.907 6.47427 20.7131 6.74065 18.6782 7.43263C18.4067 7.52494 18.1381 7.62495 17.8725 7.73243C15.8814 8.53823 14.0605 9.77104 12.4966 11.4424C12.2817 11.672 12.0673 11.9706 11.8471 12.1836C11.5664 12.5552 11.2624 12.9308 11.0054 13.3154C8.87734 16.4998 7.85728 20.4889 8.36766 24.2979C8.61875 26.1713 9.36594 28.534 10.5942 30.0186C11.1182 30.6155 11.6334 31.1754 12.2456 31.6875C12.2858 31.7212 12.3332 31.7619 12.3794 31.8037C12.4255 31.8455 12.4701 31.8888 12.5054 31.9268L12.521 31.9365C12.8064 32.1188 13.0905 32.3833 13.3725 32.5791C14.1615 33.1266 14.9905 33.579 15.8481 33.9434C16.0933 34.0475 16.3407 34.1445 16.5903 34.2344C19.4592 35.2673 22.6057 35.3666 25.6411 34.7608C31.5648 33.5782 36.4388 29.4089 39.0405 24.0313C39.248 23.6023 39.398 23.0872 39.644 22.6836L39.5581 23.5059C39.512 23.8916 39.4586 24.2491 39.3852 24.6201C39.3119 24.9914 39.2184 25.3768 39.0923 25.8174C38.8635 26.6163 38.561 27.3848 38.1968 28.1211C38.0146 28.4893 37.8166 28.8493 37.605 29.2012C37.3932 29.5533 37.1674 29.8971 36.9292 30.2324C36.6912 30.5674 36.4407 30.894 36.1792 31.2119C36.0482 31.3711 35.9141 31.5278 35.7778 31.6826C35.3692 32.1467 34.9379 32.5917 34.4878 33.0156C34.1876 33.2984 33.8789 33.5716 33.5639 33.836C32.9103 34.3846 32.1637 34.8538 31.4507 35.3203C31.3394 35.3933 30.9618 35.6525 30.8716 35.6875C30.3701 35.9568 29.4528 36.4674 28.9497 36.667C28.5139 36.9094 27.5959 37.2228 27.1147 37.3848C24.4478 38.2838 20.8544 38.6494 18.0757 38.0186C18.0452 38.0437 18.0589 38.028 18.0405 38.0713C18.161 38.1584 18.595 38.2616 18.7612 38.3057C19.7833 38.5872 20.8275 38.7829 21.8823 38.8897C25.8862 39.2344 29.8975 38.3157 33.352 36.2627C38.6537 33.1802 42.045 27.9233 43.9595 22.2158C44.0971 21.8058 44.1804 21.4173 44.2905 21.002C44.3185 21.5534 44.2435 22.1212 44.2016 22.6621C44.0787 24.248 43.7527 25.7427 43.2212 27.2383C43.0039 27.8495 42.8538 28.468 42.5747 29.0762C42.1907 30.0659 41.2205 32.1601 40.6225 33.0235C40.5646 33.1658 40.1025 33.8397 39.9848 34.0098C38.5607 36.0551 36.7993 37.844 34.7759 39.2998C30.4265 42.4572 24.9966 43.7489 19.6909 42.8887C14.3789 42.0598 9.61964 39.1387 6.47703 34.7774C5.96659 34.0583 5.50898 33.3026 5.10691 32.5176C3.17691 28.9017 2.46896 24.7583 3.09031 20.707C3.66787 17.1926 5.24702 13.9192 7.63719 11.2783C7.95507 10.9239 8.81199 10.0302 9.18113 9.76271C9.7953 9.16594 10.9879 8.33278 11.7153 7.88673C14.4072 6.23146 17.4474 5.22411 20.5952 4.94435C21.4385 4.87289 22.184 4.87293 23.0268 4.88478Z" fill="#145D7E"/>
<path d="M23.0268 4.88478C23.6297 4.8957 24.232 4.93734 24.8305 5.00978C25.0007 5.03002 25.289 5.07137 25.6323 5.12794C25.8041 5.15625 25.9897 5.188 26.1811 5.22365C26.5639 5.29494 26.9701 5.37998 27.3364 5.47365C27.8859 5.61415 28.346 5.77488 28.5024 5.93947C28.5512 5.99091 28.5874 6.05419 28.6128 6.12306C28.638 6.19169 28.653 6.2658 28.6596 6.33888C28.6641 6.38777 28.6647 6.43634 28.6626 6.48243C28.6556 6.6341 28.6068 6.76981 28.4936 6.87501C28.4732 6.89405 28.4516 6.9113 28.4292 6.92677C28.3845 6.95754 28.3362 6.98175 28.2856 7.00001C28.159 7.04573 28.0182 7.05487 27.8843 7.04591C27.4978 7.01995 27.1186 6.9067 26.7407 6.82911C26.2236 6.72385 25.6999 6.65479 25.1733 6.62208C22.907 6.47427 20.7131 6.74065 18.6782 7.43263C18.4067 7.52494 18.1381 7.62495 17.8725 7.73243C15.8814 8.53823 14.0605 9.77104 12.4966 11.4424C12.2817 11.672 12.0673 11.9706 11.8471 12.1836C11.5664 12.5552 11.2624 12.9308 11.0054 13.3154C8.87734 16.4998 7.85728 20.4889 8.36766 24.2979C8.61875 26.1713 9.36594 28.534 10.5942 30.0186C11.1182 30.6155 11.6334 31.1754 12.2456 31.6875C12.2858 31.7212 12.3332 31.7619 12.3794 31.8037C12.4255 31.8455 12.4701 31.8888 12.5054 31.9268L12.521 31.9365C12.8064 32.1188 13.0905 32.3833 13.3725 32.5791C14.1615 33.1266 14.9905 33.579 15.8481 33.9434C16.0933 34.0475 16.3407 34.1445 16.5903 34.2344C19.4592 35.2673 22.6057 35.3666 25.6411 34.7608C31.5648 33.5782 36.4388 29.4089 39.0405 24.0313C39.248 23.6023 39.398 23.0872 39.644 22.6836L39.5581 23.5059C39.512 23.8916 39.4586 24.2491 39.3852 24.6201C39.3119 24.9914 39.2184 25.3768 39.0923 25.8174C38.8635 26.6163 38.561 27.3848 38.1968 28.1211C38.0146 28.4893 37.8166 28.8493 37.605 29.2012C37.3932 29.5533 37.1674 29.8971 36.9292 30.2324C36.6912 30.5674 36.4407 30.894 36.1792 31.2119C36.0482 31.3711 35.9141 31.5278 35.7778 31.6826C35.3692 32.1467 34.9379 32.5917 34.4878 33.0156C34.1876 33.2984 33.8789 33.5716 33.5639 33.836C32.9103 34.3846 32.1637 34.8538 31.4507 35.3203C31.3394 35.3933 30.9618 35.6525 30.8716 35.6875C30.3701 35.9568 29.4528 36.4674 28.9497 36.667C28.5139 36.9094 27.5959 37.2228 27.1147 37.3848C24.4478 38.2838 20.8544 38.6494 18.0757 38.0186C18.0452 38.0437 18.0589 38.028 18.0405 38.0713C18.161 38.1584 18.595 38.2616 18.7612 38.3057C19.7833 38.5872 20.8275 38.7829 21.8823 38.8897C25.8862 39.2344 29.8975 38.3157 33.352 36.2627C38.6537 33.1802 42.045 27.9233 43.9595 22.2158C44.0971 21.8058 44.1804 21.4173 44.2905 21.002C44.3185 21.5534 44.2435 22.1212 44.2016 22.6621C44.0787 24.248 43.7527 25.7427 43.2212 27.2383C43.0039 27.8495 42.8538 28.468 42.5747 29.0762C42.1907 30.0659 41.2205 32.1601 40.6225 33.0235C40.5646 33.1658 40.1025 33.8397 39.9848 34.0098C38.5607 36.0551 36.7993 37.844 34.7759 39.2998C30.4265 42.4572 24.9966 43.7489 19.6909 42.8887C14.3789 42.0598 9.61964 39.1387 6.47703 34.7774C5.96659 34.0583 5.50898 33.3026 5.10691 32.5176C3.17691 28.9017 2.46896 24.7583 3.09031 20.707C3.66787 17.1926 5.24702 13.9192 7.63719 11.2783C7.95507 10.9239 8.81199 10.0302 9.18113 9.76271C9.7953 9.16594 10.9879 8.33278 11.7153 7.88673C14.4072 6.23146 17.4474 5.22411 20.5952 4.94435C21.4385 4.87289 22.184 4.87293 23.0268 4.88478Z" fill="url(#paint0_linear_58_6)"/>
<path d="M16.4555 9.94337C20.1651 7.80906 25.4093 7.3071 28.7202 10.3936C29.0122 10.6659 29.3205 10.9514 29.5464 11.2861L29.6382 11.4326L29.6587 11.4795C29.6346 11.4882 29.596 11.4842 29.5493 11.4727C29.4084 11.438 29.1944 11.3353 29.0913 11.3106C28.3443 11.1317 27.5858 10.9437 26.8208 10.8545C26.4606 10.8133 26.1013 10.7865 25.7436 10.7744C25.386 10.7624 25.03 10.765 24.6762 10.7813C19.7231 11.0093 15.2234 13.9792 13.1147 18.5957C11.9883 21.0261 11.5867 23.5468 11.8403 26.2051C11.8556 26.3659 11.8744 26.6319 11.8403 26.7842C11.9913 27.4647 12.1839 28.2773 12.435 28.9297C7.07268 23.0841 10.0561 13.6255 16.4555 9.94337Z" fill="#145D7E"/>
<path d="M16.4555 9.94337C20.1651 7.80906 25.4093 7.3071 28.7202 10.3936C29.0122 10.6659 29.3205 10.9514 29.5464 11.2861L29.6382 11.4326L29.6587 11.4795C29.6346 11.4882 29.596 11.4842 29.5493 11.4727C29.4084 11.438 29.1944 11.3353 29.0913 11.3106C28.3443 11.1317 27.5858 10.9437 26.8208 10.8545C26.4606 10.8133 26.1013 10.7865 25.7436 10.7744C25.386 10.7624 25.03 10.765 24.6762 10.7813C19.7231 11.0093 15.2234 13.9792 13.1147 18.5957C11.9883 21.0261 11.5867 23.5468 11.8403 26.2051C11.8556 26.3659 11.8744 26.6319 11.8403 26.7842C11.9913 27.4647 12.1839 28.2773 12.435 28.9297C7.07268 23.0841 10.0561 13.6255 16.4555 9.94337Z" fill="url(#paint1_linear_58_6)"/>
<path d="M34.2222 14.5251C34.6911 14.5075 35.4705 14.5479 35.9272 14.6262C34.4109 15.0367 33.548 15.3269 32.1785 16.1742C29.5185 17.8284 27.6279 20.4747 26.9256 23.5269C26.5671 25.0673 26.4722 27.4616 27.3837 28.8262C28.1473 29.9695 29.1747 30.4447 30.446 30.7287C29.7918 30.9584 29.15 30.9931 28.4652 30.9942C25.3996 31.0139 23.1778 28.39 23.1401 25.4391C23.0659 19.6335 28.6564 14.782 34.2222 14.5251Z" fill="#14727E"/>
<path d="M44.1638 7.61945L44.1991 7.64413C44.2032 7.68133 44.2066 7.71019 44.2066 7.7478C44.203 11.794 42.5862 14.7981 38.1521 14.7303C38.7897 13.525 39.3635 12.5438 40.2508 11.48C40.816 10.8025 41.4076 10.2188 42.0149 9.58384L41.7069 9.76185C39.8582 11.0766 38.6388 12.4767 37.3089 14.2935C37.2754 13.9997 37.2404 13.696 37.2335 13.4004C37.2093 12.01 37.7262 10.6645 38.6752 9.64759C40.2009 8.04363 42.0407 7.67348 44.1638 7.61945Z" fill="url(#paint2_linear_58_6)"/>
<path d="M30.7747 6.40918C31.783 6.5582 33.16 7.07049 34.0603 7.56763C36.0877 8.68712 37.0816 11.164 35.8022 13.2643C34.9482 11.3801 34.1697 10.2663 32.7979 8.77731L32.7554 8.86538C33.761 10.2462 34.6705 11.8266 35.0423 13.5035C31.9131 12.9056 30.3818 10.9501 30.5824 7.76464C30.6104 7.32073 30.7072 6.84967 30.7747 6.40918Z" fill="url(#paint3_linear_58_6)"/>
<path d="M32.4634 8.45892C32.6052 8.57618 32.6831 8.63533 32.798 8.77727L32.7555 8.86535C32.6476 8.73938 32.5561 8.59677 32.4634 8.45892Z" fill="#145D7E"/>
<path d="M23.6143 19.7277C23.6468 19.729 23.6287 19.7246 23.6645 19.7511C23.48 20.0026 23.2542 20.2499 23.0592 20.4991C22.2292 21.5602 21.6925 22.7666 21.42 24.0907C20.7367 27.4106 22.4481 31.0264 25.9599 31.7179C25.2802 31.8686 24.3182 31.8766 23.6223 31.787C23.2137 31.7232 22.8139 31.6123 22.4309 31.4563C21.0015 30.8721 19.8422 29.803 19.2417 28.3729C17.7266 24.7645 20.2893 21.1071 23.6143 19.7277Z" fill="#14727E"/>
<path d="M21.6233 19.9821L21.6524 19.9879C21.6381 20.0229 21.0011 20.4625 20.9189 20.5222C18.2652 22.4515 16.568 25.9586 18.0833 29.1154C18.6693 30.3359 19.5944 31.2647 20.7548 31.9108C19.9909 31.7762 19.6563 31.6927 18.956 31.3942C17.1267 30.5798 15.3998 28.7784 15.2293 26.7075C14.9751 23.6205 17.9114 21.1441 20.5907 20.2672C20.9323 20.1554 21.2754 20.0717 21.6233 19.9821Z" fill="#14727E"/>
<path d="M39.6722 20.5753C39.4988 19.7811 39.4136 19.196 39.6516 18.3916C40.4102 15.827 42.6288 15.1691 45.0205 15.2074C44.9716 16.3076 44.9306 17.1368 44.5399 18.1932C43.8574 20.0381 42.3641 20.9621 40.3866 20.8848C40.6294 19.9754 42.0234 17.8632 42.7054 17.2377L42.7292 17.0995C42.4448 17.3338 42.0278 17.664 41.7728 17.9141C41.0315 18.6411 40.1846 19.6745 39.6722 20.5753Z" fill="url(#paint4_linear_58_6)"/>
<path d="M42.7292 17.0995C42.8404 16.9959 42.9459 16.9326 43.0727 16.8499C42.9586 16.9735 42.8263 17.1248 42.7053 17.2377L42.7292 17.0995Z" fill="#145D7E"/>
<path d="M22.8171 13.8301C24.1911 13.7367 25.3787 14.78 25.4625 16.1546C25.5462 17.5291 24.4947 18.709 23.1192 18.7832C21.7574 18.8567 20.5914 17.8177 20.5083 16.4567C20.4253 15.0956 21.4564 13.9226 22.8171 13.8301Z" fill="#14727E"/>
<path d="M35.1453 16.9102C36.736 16.7768 38.2037 17.4742 38.6771 19.0908C38.7614 19.3789 38.7678 19.6523 38.7811 19.9489C38.5619 19.7709 38.3613 19.5417 38.1233 19.3589C37.3231 18.7444 36.4807 18.3313 35.521 18.0466C35.847 18.3006 36.476 18.6693 36.8741 18.9572C37.4529 19.4174 37.9687 19.945 38.3469 20.5826C37.4032 20.9621 36.1219 20.7951 35.2846 20.2393C34.3101 19.5924 33.6193 18.3696 33.3743 17.2427C33.9486 17.059 34.5435 16.9474 35.1453 16.9102Z" fill="url(#paint5_linear_58_6)"/>
<defs>
<linearGradient id="paint0_linear_58_6" x1="20.5327" y1="9.95541" x2="20.5327" y2="26.7843" gradientUnits="userSpaceOnUse">
<stop stop-color="#4AB3DA"/>
<stop offset="1" stop-color="#26874E"/>
</linearGradient>
<linearGradient id="paint1_linear_58_6" x1="20.5327" y1="9.95541" x2="20.5327" y2="26.7843" gradientUnits="userSpaceOnUse">
<stop stop-color="#4AB3DA"/>
<stop offset="1" stop-color="#26874E"/>
</linearGradient>
<linearGradient id="paint2_linear_58_6" x1="40.7196" y1="7.61945" x2="40.7196" y2="14.7314" gradientUnits="userSpaceOnUse">
<stop offset="0.466346" stop-color="#52AF79"/>
<stop offset="1" stop-color="#24A8E4"/>
</linearGradient>
<linearGradient id="paint3_linear_58_6" x1="33.4693" y1="6.40918" x2="33.4693" y2="13.5035" gradientUnits="userSpaceOnUse">
<stop offset="0.466346" stop-color="#52AF79"/>
<stop offset="1" stop-color="#24A8E4"/>
</linearGradient>
<linearGradient id="paint4_linear_58_6" x1="42.2628" y1="15.2058" x2="42.2628" y2="20.8893" gradientUnits="userSpaceOnUse">
<stop offset="0.466346" stop-color="#52AF79"/>
<stop offset="1" stop-color="#24A8E4"/>
</linearGradient>
<linearGradient id="paint5_linear_58_6" x1="36.0777" y1="16.8942" x2="36.0777" y2="20.7874" gradientUnits="userSpaceOnUse">
<stop offset="0.466346" stop-color="#52AF79"/>
<stop offset="1" stop-color="#24A8E4"/>
</linearGradient>
</defs>
</svg>
